<svg width="40" height="40" fill="none" xmlns="http://www.w3.org/2000/svg"><g clip-path="url(#clip0)"><path d="M19.435.13L1.524 8.775a.65.65 0 00-.368.585v21.28a.65.65 0 00.368.585l17.911 8.647a1.3 1.3 0 001.13 0l17.912-8.647a.65.65 0 00.367-.585V9.36a.65.65 0 00-.367-.585L20.565.13a1.3 1.3 0 00-1.13 0z" fill="#FFE17D"/><path d="M1.264 9.006a.647.647 0 00-.108.355V30.64a.65.65 0 00.368.585l17.911 8.647c.179.086.372.129.565.129V18.05L1.264 9.007z" fill="#FFC350"/><path d="M38.736 9.006a.648.648 0 01.108.355V30.64a.65.65 0 01-.367.585L20.565 39.87a1.3 1.3 0 01-.565.129V18.05l18.736-9.044z" fill="#FFD164"/><path d="M6.516 29.504a.648.648 0 01-.282-.064L3.47 28.105a.65.65 0 11.565-1.17L6.8 28.27a.65.65 0 01-.283 1.234zm2.545-1.656a.648.648 0 01-.281-.065l-5.307-2.562a.65.65 0 01.565-1.17l5.306 2.562a.65.65 0 01-.283 1.235z" fill="#fff"/><path d="M32.387 12.06L13.585 2.977 8.63 5.38l18.844 9.097 4.914-2.417z" fill="#08656D"/><path d="M27.473 14.477v7.047c0 .24.25.397.466.293l4.08-1.97a.65.65 0 00.368-.585V12.06l-4.914 2.417z" fill="#004147"/></g><defs><clipPath id="clip0"><path fill="#fff" d="M0 0h40v40H0z"/></clipPath></defs></svg>