<svg width="40" height="40" fill="none" xmlns="http://www.w3.org/2000/svg"><g clip-path="url(#clip0)"><path d="M20 25.494h-2.764v11.052h13.815V25.494h-2.763v-8.288H20v8.288z" fill="#D1D1D1"/><path d="M34.505 35.165c0-1.174-.898-2.072-2.072-2.072h-.691V22.732c0-.415-.276-.691-.69-.691h-2.073v-7.598c0-.415-.276-.69-.69-.69H20c-.415 0-.691.275-.691.69v7.598h-1.382V7.535c0-1.174-.898-2.072-2.072-2.072h-.69V4.98c0-2.694-2.073-4.904-4.698-4.974-1.312-.069-2.555.415-3.522 1.382-.898.829-1.45 2.072-1.45 3.385 0 .414.275.69.69.69.414 0 .69-.276.69-.69 0-.967.346-1.796 1.037-2.487a3.748 3.748 0 012.486-.967c1.865.069 3.316 1.658 3.316 3.592v28.872a3.552 3.552 0 00-2.072-.69 3.42 3.42 0 00-3.454 3.453A3.42 3.42 0 0011.642 40c1.657 0 3.039-1.174 3.384-2.763h15.68l2.556 2.556a.746.746 0 00.483.207c.138 0 .346-.07.484-.207a.668.668 0 000-.967l-1.52-1.589a2.085 2.085 0 001.796-2.072zm-9.67-20.031v.69c0 .415-.277.691-.691.691-.414 0-.69-.276-.69-.69v-.691h1.38zm-4.145 0h1.382v.69c0 1.175.898 2.072 2.072 2.072s2.072-.897 2.072-2.072v-.69h1.382v6.907H20.69v-6.907zm2.763 8.288h1.382v3.454c0 .415-.277.69-.691.69-.414 0-.69-.275-.69-.69v-3.454zm-3.453 0h2.072v3.454c0 1.174.898 2.072 2.072 2.072s2.072-.898 2.072-2.072v-3.454h4.145v9.67H17.927v-9.67H20zm-8.29 15.196c-1.174 0-2.071-.897-2.071-2.072 0-1.174.898-2.072 2.072-2.072s2.072.898 2.072 2.072c0 1.175-.898 2.072-2.072 2.072zm20.723-2.762H15.164V6.845h.691c.415 0 .69.276.69.69v26.248c0 .415.277.691.692.691h15.196c.414 0 .69.276.69.69 0 .415-.276.692-.69.692z" fill="#004147"/><path d="M11.71 37.237a.69.69 0 100-1.382.69.69 0 000 1.382z" fill="#004147"/></g><defs><clipPath id="clip0"><path fill="#fff" d="M0 0h40v40H0z"/></clipPath></defs></svg>