<svg width="28" height="28" fill="none" xmlns="http://www.w3.org/2000/svg"><path d="M22.17 19.83a3.495 3.495 0 00-3.492 3.492 3.495 3.495 0 003.492 3.49 3.495 3.495 0 003.491-3.49 3.495 3.495 0 00-3.491-3.492zm0 4.888c-.77 0-1.397-.626-1.397-1.396a1.398 1.398 0 012.793 0c0 .77-.626 1.396-1.396 1.396zm5.607-18.381a1.046 1.046 0 00-.824-.402H6.465L5.523 1.99a1.048 1.048 0 00-1.02-.804H1.048a1.047 1.047 0 100 2.094h2.63l3.404 14.243c.113.472.534.805 1.019.805h16.304c.482 0 .901-.329 1.017-.796l2.549-10.3a1.05 1.05 0 00-.193-.896zm-4.192 9.897H8.927L6.966 8.03h18.648l-2.03 8.204zM9.496 19.83a3.495 3.495 0 00-3.49 3.492 3.495 3.495 0 003.49 3.49 3.495 3.495 0 003.492-3.49 3.495 3.495 0 00-3.492-3.492zm0 4.888a1.397 1.397 0 010-2.793 1.398 1.398 0 010 2.793z" fill="#fff"/></svg>