<svg width="14" height="14" fill="none" xmlns="http://www.w3.org/2000/svg"><g clip-path="url(#clip0)" fill="#004147"><path d="M13.503 1.931a.547.547 0 00-.595.495l-.072.795C11.606 1.291 9.473 0 7 0 4.34 0 1.996 1.518.832 3.797a.547.547 0 10.974.497A5.835 5.835 0 017 1.094a5.827 5.827 0 014.92 2.718l-.78-.557a.547.547 0 00-.635.89l2.364 1.689c.347.247.825.02.863-.396l.266-2.912a.547.547 0 00-.495-.595zm-.573 7.537a.547.547 0 00-.736.238A5.835 5.835 0 017 12.906a5.827 5.827 0 01-4.92-2.718l.78.557a.547.547 0 00.635-.89L1.13 8.166a.547.547 0 00-.862.396l-.266 2.913a.547.547 0 101.09.099l.072-.795C2.394 12.71 4.527 14 7 14c2.66 0 5.004-1.518 6.168-3.797a.547.547 0 00-.238-.735z"/></g><defs><clipPath id="clip0"><path fill="#fff" d="M0 0h14v14H0z"/></clipPath></defs></svg>