<svg width="30" height="30" fill="none" xmlns="http://www.w3.org/2000/svg"><rect width="30" height="30" rx="5" fill="#1DA1F2"/><path d="M25 8.924a8.549 8.549 0 01-2.363.647 4.077 4.077 0 001.804-2.266 8.192 8.192 0 01-2.6.992 4.099 4.099 0 00-7.093 2.804c0 .325.028.638.096.935-3.409-.166-6.425-1.8-8.451-4.288A4.128 4.128 0 005.83 9.82c0 1.42.731 2.679 1.821 3.407a4.049 4.049 0 01-1.852-.505v.046a4.119 4.119 0 003.285 4.028 4.09 4.09 0 01-1.075.135c-.263 0-.527-.015-.776-.07.531 1.624 2.039 2.818 3.831 2.857a8.238 8.238 0 01-5.084 1.748A7.67 7.67 0 015 21.41a11.543 11.543 0 006.29 1.84c7.545 0 11.67-6.25 11.67-11.668 0-.18-.006-.356-.015-.53A8.179 8.179 0 0025 8.925z" fill="#fff"/></svg>