<svg width="30" height="30" fill="none" xmlns="http://www.w3.org/2000/svg"><rect width="30" height="30" rx="5" fill="#59267C"/><g clip-path="url(#clip0)" fill="#fff"><path d="M21.398 13.553c.021-2.537-2.14-4.864-4.818-5.186a2.611 2.611 0 01-.173-.026 2.504 2.504 0 00-.408-.044c-.55 0-.696.385-.735.615-.037.224-.001.412.107.559.182.247.501.29.758.326.076.01.147.02.206.033 2.407.538 3.217 1.383 3.613 3.77.01.058.014.13.018.206.018.285.054.878.692.878.053 0 .11-.004.17-.013.593-.09.575-.633.566-.894a1.291 1.291 0 01.001-.189.241.241 0 00.003-.035z"/><path d="M15.843 7.436c.071.005.139.01.195.019 3.951.607 5.769 2.48 6.272 6.462.009.068.01.15.012.238.005.31.015.958.71.972h.022c.218 0 .391-.066.515-.196.216-.226.201-.562.19-.833a2.406 2.406 0 01-.006-.183c.05-4.073-3.475-7.766-7.545-7.904-.017 0-.033 0-.049.003a.34.34 0 01-.048.002c-.04 0-.09-.003-.144-.007-.064-.004-.136-.009-.21-.009-.648 0-.77.46-.787.735-.036.635.578.68.873.701zm6.277 11.628c-.084-.064-.17-.13-.252-.196a24.31 24.31 0 00-1.335-.977 112.53 112.53 0 01-.276-.192c-.568-.4-1.08-.594-1.562-.594-.65 0-1.218.36-1.686 1.068-.208.314-.46.467-.77.467-.183 0-.391-.052-.619-.155-1.835-.833-3.145-2.109-3.895-3.793-.362-.814-.245-1.347.393-1.78.362-.245 1.036-.703.988-1.579-.054-.995-2.249-3.988-3.174-4.328A1.802 1.802 0 008.707 7c-1.063.358-1.826.986-2.207 1.816-.367.802-.35 1.743.048 2.723 1.154 2.832 2.776 5.302 4.822 7.34 2.002 1.994 4.463 3.628 7.313 4.856.258.11.527.17.724.215.067.014.125.027.167.039a.28.28 0 00.071.01h.023c1.34 0 2.95-1.225 3.445-2.622.434-1.224-.357-1.828-.993-2.314zm-5.684-8.393c-.23.006-.707.018-.875.505-.078.227-.069.424.028.586.143.238.415.31.663.35.9.145 1.362.643 1.454 1.566.043.43.333.731.705.731a.697.697 0 00.084-.005c.448-.053.665-.382.645-.977.007-.622-.318-1.327-.87-1.89-.556-.563-1.225-.88-1.834-.866z"/></g><defs><clipPath id="clip0"><path fill="#fff" d="M6 6h18v18H6z"/></clipPath></defs></svg>